<svg xmlns="http://www.w3.org/2000/svg">
    <symbol id="apple-icon" xmlns="http://www.w3.org/2000/svg" fill="currentColor" viewBox="0 0 16 16">
        <path d="M11.182.008C11.148-.03 9.923.023 8.857 1.18c-1.066 1.156-.902 2.482-.878 2.516s1.52.087 2.475-1.258.762-2.391.728-2.43m3.314 11.733c-.048-.096-2.325-1.234-2.113-3.422s1.675-2.789 1.698-2.854-.597-.79-1.254-1.157a3.7 3.7 0 0 0-1.563-.434c-.108-.003-.483-.095-1.254.116-.508.139-1.653.589-1.968.607-.316.018-1.256-.522-2.267-.665-.647-.125-1.333.131-1.824.328-.49.196-1.422.754-2.074 2.237-.652 1.482-.311 3.83-.067 4.56s.625 1.924 1.273 2.796c.576.984 1.34 1.667 1.659 1.899s1.219.386 1.843.067c.502-.308 1.408-.485 1.766-.472.357.013 1.061.154 1.782.539.571.197 1.111.115 1.652-.105.541-.221 1.324-1.059 2.238-2.758q.52-1.185.473-1.282"/>
        <path d="M11.182.008C11.148-.03 9.923.023 8.857 1.18c-1.066 1.156-.902 2.482-.878 2.516s1.52.087 2.475-1.258.762-2.391.728-2.43m3.314 11.733c-.048-.096-2.325-1.234-2.113-3.422s1.675-2.789 1.698-2.854-.597-.79-1.254-1.157a3.7 3.7 0 0 0-1.563-.434c-.108-.003-.483-.095-1.254.116-.508.139-1.653.589-1.968.607-.316.018-1.256-.522-2.267-.665-.647-.125-1.333.131-1.824.328-.49.196-1.422.754-2.074 2.237-.652 1.482-.311 3.83-.067 4.56s.625 1.924 1.273 2.796c.576.984 1.34 1.667 1.659 1.899s1.219.386 1.843.067c.502-.308 1.408-.485 1.766-.472.357.013 1.061.154 1.782.539.571.197 1.111.115 1.652-.105.541-.221 1.324-1.059 2.238-2.758q.52-1.185.473-1.282"/>
    </symbol>

    <symbol id="cart-icon" xmlns="http://www.w3.org/2000/svg" fill="currentColor" viewBox="0 0 16 16">
        <path d="M0 1.5A.5.5 0 0 1 .5 1H2a.5.5 0 0 1 .485.379L2.89 3H14.5a.5.5 0 0 1 .491.592l-1.5 8A.5.5 0 0 1 13 12H4a.5.5 0 0 1-.491-.408L2.01 3.607 1.61 2H.5a.5.5 0 0 1-.5-.5M3.102 4l1.313 7h8.17l1.313-7zM5 12a2 2 0 1 0 0 4 2 2 0 0 0 0-4m7 0a2 2 0 1 0 0 4 2 2 0 0 0 0-4m-7 1a1 1 0 1 1 0 2 1 1 0 0 1 0-2m7 0a1 1 0 1 1 0 2 1 1 0 0 1 0-2"/>
    </symbol>

    <symbol id="cart-stripe-icon" xmlns="http://www.w3.org/2000/svg" fill="currentColor" viewBox="0 0 16 16">
        <path d="M0 2.5A.5.5 0 0 1 .5 2H2a.5.5 0 0 1 .485.379L2.89 4H14.5a.5.5 0 0 1 .485.621l-1.5 6A.5.5 0 0 1 13 11H4a.5.5 0 0 1-.485-.379L1.61 3H.5a.5.5 0 0 1-.5-.5M3.14 5l.5 2H5V5zM6 5v2h2V5zm3 0v2h2V5zm3 0v2h1.36l.5-2zm1.11 3H12v2h.61zM11 8H9v2h2zM8 8H6v2h2zM5 8H3.89l.5 2H5zm0 5a1 1 0 1 0 0 2 1 1 0 0 0 0-2m-2 1a2 2 0 1 1 4 0 2 2 0 0 1-4 0m9-1a1 1 0 1 0 0 2 1 1 0 0 0 0-2m-2 1a2 2 0 1 1 4 0 2 2 0 0 1-4 0"/>
    </symbol>

    <symbol id="handback-icon" xmlns="http://www.w3.org/2000/svg" fill="currentColor" viewBox="0 0 16 16">
        <path d="M8 1a2 2 0 0 0-2 2v2H5V3a3 3 0 1 1 6 0v2h-1V3a2 2 0 0 0-2-2M5 5H3.36a1.5 1.5 0 0 0-1.483 1.277L.85 13.13A2.5 2.5 0 0 0 3.322 16h9.355a2.5 2.5 0 0 0 2.473-2.87l-1.028-6.853A1.5 1.5 0 0 0 12.64 5H11v1.5a.5.5 0 0 1-1 0V5H6v1.5a.5.5 0 0 1-1 0z"/>
    </symbol>

    <symbol id="handshake-icon" xmlns="http://www.w3.org/2000/svg" fill="currentColor" viewBox="0 0 16 16">
        <path d="M323.4 85.2l-96.8 78.4c-16.1 13-19.2 36.4-7 53.1c12.9 17.8 38 21.3 55.3 7.8l99.3-77.2c7-5.4 17-4.2 22.5 2.8s4.2 17-2.8 22.5l-20.9 16.2L512 316.8 512 128l-.7 0-3.9-2.5L434.8 79c-15.3-9.8-33.2-15-51.4-15c-21.8 0-43 7.5-60 21.2zm22.8 124.4l-51.7 40.2C263 274.4 217.3 268 193.7 235.6c-22.2-30.5-16.6-73.1 12.7-96.8l83.2-67.3c-11.6-4.9-24.1-7.4-36.8-7.4C234 64 215.7 69.6 200 80l-72 48 0 224 28.2 0 91.4 83.4c19.6 17.9 49.9 16.5 67.8-3.1c5.5-6.1 9.2-13.2 11.1-20.6l17 15.6c19.5 17.9 49.9 16.6 67.8-2.9c4.5-4.9 7.8-10.6 9.9-16.5c19.4 13 45.8 10.3 62.1-7.5c17.9-19.5 16.6-49.9-2.9-67.8l-134.2-123zM16 128c-8.8 0-16 7.2-16 16L0 352c0 17.7 14.3 32 32 32l32 0c17.7 0 32-14.3 32-32l0-224-80 0zM48 320a16 16 0 1 1 0 32 16 16 0 1 1 0-32zM544 128l0 224c0 17.7 14.3 32 32 32l32 0c17.7 0 32-14.3 32-32l0-208c0-8.8-7.2-16-16-16l-80 0zm32 208a16 16 0 1 1 32 0 16 16 0 1 1 -32 0z"/>
    </symbol>

    <symbol id="phone-icon" xmlns="http://www.w3.org/2000/svg" fill="currentColor" viewBox="0 0 16 16">
        <path d="M3 2a2 2 0 0 1 2-2h6a2 2 0 0 1 2 2v12a2 2 0 0 1-2 2H5a2 2 0 0 1-2-2zm6 11a1 1 0 1 0-2 0 1 1 0 0 0 2 0"/>
    </symbol>

    <symbol id="truck-icon" xmlns="http://www.w3.org/2000/svg" fill="currentColor" viewBox="0 0 16 16">
        <path d="M0 3.5A1.5 1.5 0 0 1 1.5 2h9A1.5 1.5 0 0 1 12 3.5V5h1.02a1.5 1.5 0 0 1 1.17.563l1.481 1.85a1.5 1.5 0 0 1 .329.938V10.5a1.5 1.5 0 0 1-1.5 1.5H14a2 2 0 1 1-4 0H5a2 2 0 1 1-3.998-.085A1.5 1.5 0 0 1 0 10.5zm1.294 7.456A2 2 0 0 1 4.732 11h5.536a2 2 0 0 1 .732-.732V3.5a.5.5 0 0 0-.5-.5h-9a.5.5 0 0 0-.5.5v7a.5.5 0 0 0 .294.456M12 10a2 2 0 0 1 1.732 1h.768a.5.5 0 0 0 .5-.5V8.35a.5.5 0 0 0-.11-.312l-1.48-1.85A.5.5 0 0 0 13.02 6H12zm-9 1a1 1 0 1 0 0 2 1 1 0 0 0 0-2m9 0a1 1 0 1 0 0 2 1 1 0 0 0 0-2"/>
    </symbol>

    <symbol id="rocket-icon" xmlns="http://www.w3.org/2000/svg" fill="currentColor" viewBox="0 0 16 16">
        <path d="M12.17 9.53c2.307-2.592 3.278-4.684 3.641-6.218.21-.887.214-1.58.16-2.065a3.6 3.6 0 0 0-.108-.563 2 2 0 0 0-.078-.23V.453c-.073-.164-.168-.234-.352-.295a2 2 0 0 0-.16-.045 4 4 0 0 0-.57-.093c-.49-.044-1.19-.03-2.08.188-1.536.374-3.618 1.343-6.161 3.604l-2.4.238h-.006a2.55 2.55 0 0 0-1.524.734L.15 7.17a.512.512 0 0 0 .433.868l1.896-.271c.28-.04.592.013.955.132.232.076.437.16.655.248l.203.083c.196.816.66 1.58 1.275 2.195.613.614 1.376 1.08 2.191 1.277l.082.202c.089.218.173.424.249.657.118.363.172.676.132.956l-.271 1.9a.512.512 0 0 0 .867.433l2.382-2.386c.41-.41.668-.949.732-1.526zm.11-3.699c-.797.8-1.93.961-2.528.362-.598-.6-.436-1.733.361-2.532.798-.799 1.93-.96 2.528-.361s.437 1.732-.36 2.531Z"/>
        <path d="M5.205 10.787a7.6 7.6 0 0 0 1.804 1.352c-1.118 1.007-4.929 2.028-5.054 1.903-.126-.127.737-4.189 1.839-5.18.346.69.837 1.35 1.411 1.925"/>
    </symbol>

    <symbol id="target-icon" xmlns="http://www.w3.org/2000/svg" fill="currentColor" viewBox="0 0 16 16">
        <path fill-rule="evenodd" clip-rule="evenodd" d="M19.6792 0.650003C19.6043 0.350082 19.3734 0.113679 19.0752 0.0311566C18.7769 -0.0513662 18.4574 0.0327504 18.2385 0.251352L14.8025 3.68377C14.5891 3.89691 14.5034 4.20624 14.5765 4.49866L15.1964 6.97559C15.1881 6.98346 15.1799 6.99144 15.1718 6.99957L11.062 11.105C10.5588 11.6077 10.5588 12.4226 11.062 12.9253C11.5652 13.428 12.3811 13.428 12.8842 12.9253L16.994 8.81988C17.0023 8.81156 17.0105 8.80317 17.0186 8.79469L19.4966 9.41354C19.7894 9.48665 20.099 9.40097 20.3123 9.18784L23.7484 5.75541C23.9672 5.53681 24.0514 5.21751 23.9688 4.91958C23.8862 4.62166 23.6496 4.39114 23.3493 4.31616L20.4133 3.58293L19.6792 0.650003ZM12.5188 1.30104C12.5681 2.01021 12.0326 2.62504 11.3227 2.67431C9.52796 2.79886 7.80676 3.43544 6.36355 4.50841C4.92035 5.58138 3.81582 7.04567 3.18116 8.72726C2.54651 10.4089 2.40843 12.2371 2.78332 13.9948C3.15821 15.7525 4.03031 17.3658 5.29601 18.6428C6.56173 19.92 8.16782 20.8073 9.92351 21.1995C11.6792 21.5916 13.5107 21.4722 15.2003 20.855C16.89 20.238 18.3668 19.1494 19.4554 17.7186C20.5439 16.2878 21.1985 14.5748 21.3413 12.7834C21.3976 12.0747 22.0185 11.546 22.7279 11.6024C23.4372 11.6588 23.9666 12.279 23.91 12.9876C23.7283 15.2704 22.8943 17.453 21.5072 19.2763C20.1201 21.0994 18.2382 22.4866 16.0852 23.2728C13.9321 24.0592 11.5984 24.2114 9.36121 23.7118C7.12403 23.2121 5.07746 22.0814 3.46465 20.4541C1.85183 18.8266 0.74056 16.771 0.262862 14.5312C-0.214837 12.2915 -0.0388854 9.9619 0.769811 7.81913C1.57851 5.67636 2.98596 3.81051 4.82495 2.44328C6.66395 1.07605 8.85717 0.264897 11.1441 0.106188C11.854 0.0569206 12.4695 0.591875 12.5188 1.30104ZM11.3647 6.9643C11.6241 7.62626 11.2973 8.37297 10.6346 8.63211C10.0707 8.85263 9.57075 9.21008 9.17992 9.67213C8.78909 10.1342 8.5197 10.6863 8.39616 11.2785C8.2726 11.8706 8.29875 12.4843 8.47227 13.0638C8.64577 13.6434 8.96117 14.1706 9.3899 14.5978C9.81865 15.025 10.3472 15.3387 10.9278 15.5105C11.5084 15.6823 12.1228 15.7069 12.7153 15.5819C13.3078 15.457 13.8597 15.1865 14.3213 14.7949C14.7828 14.4032 15.1393 13.9029 15.3586 13.339C15.6163 12.6764 16.363 12.3479 17.0263 12.6054C17.6896 12.8628 18.0184 13.6087 17.7607 14.2713C17.3864 15.234 16.7776 16.0883 15.9896 16.7569C15.2016 17.4255 14.2592 17.8873 13.2476 18.1007C12.236 18.314 11.1871 18.2721 10.1958 17.9788C9.20449 17.6853 8.30203 17.1498 7.57002 16.4204C6.838 15.6911 6.29952 14.7909 6.00328 13.8014C5.70705 12.8119 5.66238 11.7643 5.87333 10.7532C6.08429 9.74212 6.54422 8.79953 7.2115 8.01064C7.8788 7.22175 8.73241 6.61145 9.69516 6.23495C10.3578 5.9758 11.1053 6.30234 11.3647 6.9643Z"/>
    </symbol>

    <symbol id="hi-five-icon" xmlns="http://www.w3.org/2000/svg" fill="currentColor" viewBox="0 0 16 16">
        <path fill-rule="evenodd" clip-rule="evenodd" d="M13.2857 1.28568C13.2857 0.575617 12.7101 0 12 0C11.2899 0 10.7143 0.575617 10.7143 1.28568V2.99991C10.7143 3.70997 11.2899 4.28559 12 4.28559C12.7101 4.28559 13.2857 3.70997 13.2857 2.99991V1.28568ZM0.857143 24H4.83338C8.39969 24 11.3707 21.2663 11.6668 17.7125L11.8576 15.4229C11.9281 14.5771 11.32 13.8422 10.504 13.7295L10.4996 13.729C9.51477 13.6281 8.62545 14.3214 8.48321 15.3011L8.20805 17.1964C8.14003 17.6649 7.70511 17.9895 7.23665 17.9215C6.76817 17.8534 6.44354 17.4185 6.51154 16.9501L6.7867 15.0548C7.04208 13.2958 8.54661 12.0155 10.2857 12.005V8.9904C10.2857 7.71782 9.25406 6.68619 7.98144 6.68619C6.84213 6.68619 5.87385 7.5188 5.70317 8.64522L4.50655 16.5427C4.37957 17.3808 3.65921 18.0002 2.8116 18.0002H0.857143C0.383757 18.0002 0 18.3838 0 18.8573V23.1429C0 23.6162 0.383757 24 0.857143 24ZM23.1429 24H19.1667C15.6004 24 12.6294 21.2663 12.3332 17.7125L12.1424 15.4229C12.0717 14.574 12.6847 13.8366 13.5053 13.7282C14.4882 13.63 15.3748 14.3227 15.5168 15.3008L15.792 17.196C15.86 17.6645 16.2949 17.9892 16.7634 17.9211C17.2318 17.8531 17.5565 17.4182 17.4885 16.9498L17.2133 15.0545C16.958 13.2955 15.4534 12.0153 13.7143 12.0047V8.9904C13.7143 7.71782 14.746 6.68619 16.0186 6.68619C17.1579 6.68619 18.1262 7.5188 18.2969 8.64522L19.4935 16.5427C19.6205 17.3808 20.3409 18.0002 21.1884 18.0002H23.1429C23.6163 18.0002 24 18.3838 24 18.8573V23.1429C24 23.6162 23.6163 24 23.1429 24ZM19.7662 1.23368C20.2683 1.73577 20.2683 2.54982 19.7662 3.05191L18.0519 4.76614C17.5498 5.26823 16.7358 5.26823 16.2337 4.76614C15.7316 4.26406 15.7316 3.45 16.2337 2.94792L17.9481 1.23368C18.4502 0.731597 19.2641 0.731597 19.7662 1.23368ZM6.05199 1.23368C5.5499 0.731597 4.73582 0.731597 4.23372 1.23368C3.73162 1.73577 3.73162 2.54982 4.23372 3.05191L5.94801 4.76614C6.4501 5.26823 7.26418 5.26823 7.76628 4.76614C8.26838 4.26406 8.26838 3.45 7.76628 2.94792L6.05199 1.23368Z"/>
    </symbol>

    <symbol id="flag-icon" xmlns="http://www.w3.org/2000/svg" fill="currentColor" viewBox="0 0 16 16">
        <path d="M14.778.085A.5.5 0 0 1 15 .5V8a.5.5 0 0 1-.314.464L14.5 8l.186.464-.003.001-.006.003-.023.009a12 12 0 0 1-.397.15c-.264.095-.631.223-1.047.35-.816.252-1.879.523-2.71.523-.847 0-1.548-.28-2.158-.525l-.028-.01C7.68 8.71 7.14 8.5 6.5 8.5c-.7 0-1.638.23-2.437.477A20 20 0 0 0 3 9.342V15.5a.5.5 0 0 1-1 0V.5a.5.5 0 0 1 1 0v.282c.226-.079.496-.17.79-.26C4.606.272 5.67 0 6.5 0c.84 0 1.524.277 2.121.519l.043.018C9.286.788 9.828 1 10.5 1c.7 0 1.638-.23 2.437-.477a20 20 0 0 0 1.349-.476l.019-.007.004-.002h.001"/>
    </symbol>
</svg>